<svg width="140" height="55" viewBox="0 0 140 55" fill="none" xmlns="http://www.w3.org/2000/svg">
<path d="M27.4198 52.4656C27.2808 52.4763 27.1391 52.487 27.0001 52.4977L27.0108 51.9924C27.0482 50.423 27.099 48.1826 27.2086 46.9982C27.3182 48.1826 27.3717 50.4257 27.4065 51.995L27.4198 52.4656ZM54.4092 27.2808C54.4092 12.2127 42.2286 0 27.2033 0C12.178 0 0 12.2127 0 27.2808C0 29.6309 0.360928 30.6789 0.360928 30.6789C0.379643 30.8126 0.499952 30.9115 0.638976 30.8981C0.778001 30.8847 0.882269 30.7591 0.866227 30.6174C0.866227 30.6174 0.633629 30.2645 0.633629 27.5535C0.633629 13.4452 12.4908 1.58006 26.1071 1.58006C40.1753 1.58006 51.5806 13.0175 51.5806 27.1231C51.5806 38.6888 42.3409 49.1156 32.5718 51.6368C31.0585 44.4423 30.8045 48.2895 31.39 44.5893C31.4435 44.2551 31.9515 43.5092 32.7856 42.8515C33.8444 42.0174 34.8416 41.2314 34.879 40.7341C34.9004 40.4266 35.018 39.8491 35.1517 39.1807C35.387 38.0071 35.6544 36.6756 35.5848 36.0179C35.5528 35.7292 35.264 34.732 34.9913 33.8978C34.4112 32.1066 34.2989 32.1066 34.1999 32.1066C34.1919 32.1066 34.1759 32.1092 34.1679 32.1092C34.1598 32.1092 34.1491 32.1092 34.1358 32.1092H34.0475C33.9513 32.1092 33.692 32.1092 33.5235 32.3285C33.3097 32.6092 33.315 33.1492 33.5396 33.9807C34.0529 35.8789 33.724 37.6141 33.2856 38.1568C33.1145 38.2637 32.9086 38.4535 32.7081 38.638C32.5156 38.8145 32.2322 39.0792 32.1199 39.1059C32.1119 39.0685 32.1012 38.9588 32.1707 38.6621C32.4006 38.1247 32.6466 37.6542 32.8658 37.2398C33.2214 36.5634 33.4995 36.0286 33.5235 35.5581C33.5369 35.2613 33.4594 35.0074 33.3016 34.8416C33.184 34.7186 33.0343 34.6544 32.8658 34.6544C32.4996 34.6544 32.1199 34.9592 31.8258 35.4913C31.5371 36.0153 30.2324 38.2183 29.9544 38.4001C29.7619 38.5257 29.0213 39.1834 28.4518 40.0898C28.1337 40.5977 27.8904 41.1966 27.7139 41.6351C27.6204 41.8677 27.5401 42.0682 27.484 42.1591C27.3904 42.3168 27.2888 42.7312 27.206 43.2606C27.1231 42.7339 27.0242 42.3168 26.9279 42.1591C26.8718 42.0682 26.7916 41.8677 26.698 41.6377C26.5215 41.1993 26.2782 40.5977 25.9601 40.0898C25.3933 39.1834 24.6501 38.5257 24.4576 38.4001C24.1795 38.2183 22.8748 36.0153 22.5861 35.4913C22.292 34.9592 21.9123 34.6544 21.5461 34.6544C21.3776 34.6544 21.2279 34.7186 21.1103 34.8416C20.9525 35.0047 20.875 35.2613 20.8884 35.5581C20.9098 36.0286 21.1905 36.5634 21.5461 37.2398C21.7626 37.6542 22.0113 38.1247 22.2412 38.6621C22.3107 38.9588 22.3 39.0711 22.292 39.1059C22.1797 39.0792 21.8963 38.8145 21.7038 38.638C21.5033 38.4535 21.2974 38.2611 21.1263 38.1568C20.6879 37.6141 20.3563 35.8789 20.8723 33.9807C21.0969 33.1492 21.1023 32.6092 20.8884 32.3285C20.7199 32.1092 20.4606 32.1092 20.3644 32.1092H20.2761C20.2628 32.1092 20.2521 32.1092 20.2467 32.1092C20.236 32.1066 20.2253 32.1066 20.2146 32.1066C20.1157 32.1066 20.0034 32.1066 19.4233 33.8978C19.1532 34.7346 18.8618 35.7319 18.8298 36.0179C18.7602 36.6756 19.0276 38.0071 19.2629 39.1807C19.3965 39.8491 19.5142 40.4266 19.5356 40.7341C19.5703 41.2287 20.5702 42.0174 21.629 42.8515C22.4631 43.5092 23.4122 44.2551 23.463 44.5893C23.5512 45.1481 23.0646 47.9767 22.1289 52.3586C21.4231 52.2731 21.1477 52.1554 20.4472 52.0111C19.4313 51.7999 18.402 51.5245 17.3887 51.1903C16.993 51.0593 16.584 50.9122 16.1054 50.7304C15.7338 50.5861 15.3595 50.4337 14.9905 50.2706C14.8702 50.2198 14.7526 50.1663 14.6403 50.1155L14.3489 49.9819C14.2446 49.9337 14.1457 49.8856 14.0468 49.8375L13.6377 49.6343C13.5335 49.5835 13.4372 49.5327 13.3436 49.4846L13.2741 49.4471C12.7902 49.1958 12.4266 48.9873 12.2315 48.8777L11.8759 48.6691C11.7689 48.6077 11.6219 48.6344 11.5444 48.7333C11.4588 48.8456 11.4775 49.006 11.5898 49.0916L11.9186 49.3482C12.1512 49.5247 12.4721 49.7653 12.9052 50.0621C14.1858 50.939 15.5119 51.6769 16.9556 52.3185C17.9314 52.7543 18.9848 53.142 20.081 53.4762C20.1745 53.5029 20.2708 53.5296 20.367 53.5564L21.4471 53.8424L21.9204 53.9494C22.0621 53.9815 22.2064 54.0109 22.3455 54.0403L22.5513 54.0804C22.5513 54.0804 24.2143 54.5616 27.2033 54.5616C27.2594 54.5616 27.3129 54.559 27.3664 54.559C27.4172 54.559 27.4706 54.5616 27.5214 54.5616C27.8262 54.5616 28.1363 54.5563 28.4438 54.5456C29.0373 54.5269 29.6335 54.4707 30.2271 54.3932C43.83 52.8826 54.4092 41.3223 54.4092 27.2808Z" fill="#3C3C3B"/>
<path d="M105.452 30.3634H99.3702V53.7114H105.452V30.3634Z" fill="#EC7026"/>
<path d="M71.2151 30.3634H65.1328V53.7114H71.2151V30.3634Z" fill="#EC7026"/>
<path d="M126.127 30.3634V53.7114H139.949V48.7413H132.209V44.0974H139.163V39.3224H132.209V35.3335H139.655V30.3634H126.127Z" fill="#EC7026"/>
<path d="M90.3818 37.459C90.3818 39.1273 89.5637 40.2395 87.8312 40.2395H86.6228V34.7454H87.7991C89.6278 34.7454 90.3818 35.5635 90.3818 37.459ZM97.0977 53.273C96.8303 53.15 96.047 49.4819 95.3813 46.8351C94.5979 43.7017 93.4777 42.4665 92.2613 42.119C92.2666 42.119 92.2773 42.1163 92.2853 42.1163C92.4297 42.0869 92.5901 42.0495 92.7559 42.012C95.1193 41.4025 96.0096 38.483 96.0096 36.5741C96.0096 33.1493 93.6141 30.3607 89.2963 30.3607H80.5378V53.7088H86.6201V44.3621C87.4409 44.3621 87.898 44.3968 88.4301 45.2631C88.6039 45.5598 88.7776 45.9127 88.9487 46.3084C89.0824 46.6186 89.2241 46.9795 89.3792 47.3966C90.3844 50.1343 91.1945 53.7088 91.1945 53.7088H96.9533L97.2554 53.3746C97.2554 53.3746 97.1351 53.2971 97.0977 53.273Z" fill="#EC7026"/>
<path d="M113.815 35.8575H113.81C113.893 34.9191 114.481 34.1785 115.689 34.1785C116.866 34.1785 117.727 35.3228 117.727 36.697V37.2531H123.084V36.2719C123.084 36.1249 123.074 35.9778 123.066 35.8335C123.058 35.7105 123.047 35.5902 123.036 35.4725C122.742 32.8819 121.004 30.6334 118.048 30.064C117.32 29.957 116.497 29.9062 115.564 29.9062C110.575 29.9062 108.065 32.3498 107.925 36.8093C107.925 36.8093 107.928 36.8093 107.928 36.8066C107.928 36.9457 107.931 37.1221 107.936 37.2504C108.262 44.6668 117.411 43.413 117.411 48.1157C117.411 48.1932 117.409 48.2628 117.406 48.3296V48.3269C117.227 49.2921 116.553 49.8963 115.497 49.8963C114.321 49.8963 113.35 49.1771 113.35 47.1826V46.6265H107.768V47.5944C107.768 47.6666 107.768 47.7334 107.765 47.8029L107.768 47.8002C107.768 51.0833 109.821 53.9253 113.807 54.1445C114.315 54.1579 114.866 54.1659 115.46 54.1659H115.465C120.513 54.1659 123.381 52.1902 123.702 47.8109H123.705C123.705 47.8083 123.705 47.8029 123.705 47.8002C123.705 47.7976 123.705 47.7976 123.705 47.7976C123.689 39.2075 113.815 40.0042 113.815 35.8575Z" fill="#EC7026"/>
<path d="M105.452 0.828796H99.3702V24.1768H105.452V0.828796Z" fill="#3C3C3B"/>
<path d="M109.687 0.850189H115.77V19.2281H123.258V24.1982H109.687V0.850189Z" fill="#3C3C3B"/>
<path d="M126.127 0.850189V24.1982H140V19.2281H132.207V0.850189H126.127Z" fill="#3C3C3B"/>
<path d="M70.8729 6.34431H70.8676C70.9504 5.4059 71.5386 4.66532 72.7471 4.66532C73.9234 4.66532 74.7843 5.8096 74.7843 7.1838V7.7399H80.1421V6.75871C80.1421 6.61166 80.1314 6.46462 80.1234 6.32025C80.1153 6.19726 80.1046 6.07695 80.094 5.95932C79.7999 3.36598 78.0621 1.12021 75.1051 0.550744C74.3779 0.443803 73.5545 0.393005 72.6214 0.393005C67.6326 0.393005 65.1221 2.83662 64.9831 7.29609H64.9858C64.9858 7.43511 64.9885 7.60889 64.9938 7.7399C65.3226 15.1563 74.4688 13.9024 74.4688 18.6052C74.4688 18.6827 74.4662 18.7522 74.4635 18.8191V18.8164C74.2844 19.7815 73.6106 20.3857 72.5546 20.3857C71.3782 20.3857 70.4077 19.6666 70.4077 17.6721V17.116H64.8254V18.0838C64.8254 18.156 64.8254 18.2229 64.8227 18.2924H64.8254C64.8254 21.5755 66.8786 24.4174 70.8649 24.6367C71.3729 24.65 71.9236 24.6581 72.5171 24.6581H72.5225C77.5701 24.6581 80.4388 22.6823 80.7597 18.3031H80.7623C80.7623 18.3004 80.7623 18.295 80.7623 18.2924V18.2897C80.7463 9.69693 70.8729 10.491 70.8729 6.34431Z" fill="#3C3C3B"/>
<path d="M96.8945 6.51008V6.01547V4.02368V0.850189H82.2622V4.02368V6.16786V6.51008H86.5372V24.1982H92.6195V6.51008H96.8945Z" fill="#3C3C3B"/>
<path d="M37.3039 16.7203C37.3039 20.7788 34.331 23.455 34.331 26.8263C34.1599 25.7943 32.2697 22.9283 28.639 22.9283C27.2033 22.9283 25.4842 23.5298 24.2089 24.6848C24.6421 22.3187 23.5432 20.0061 21.752 18.9928C20.2842 18.1614 18.7656 18.1934 17.4529 18.6881C17.8807 17.8806 18.2122 16.715 17.9823 15.3996C18.0331 15.437 18.0839 15.4718 18.1293 15.4985C20.7601 16.9609 24.0646 17.9341 27.2193 15.5359C27.2193 15.5359 27.2514 15.5199 27.3049 15.4905C27.2327 15.8327 27.1926 16.1963 27.1926 16.5813C27.1926 20.4472 30.048 21.8001 32.2804 21.8001C35.1651 21.8001 36.4538 18.9955 36.4538 17.4288C36.4538 15.5279 34.2641 14.0789 32.6306 14.0789C30.9971 14.0789 29.7084 15.421 29.7084 16.7417C29.7084 18.7282 31.5131 19.6639 32.1574 19.6639C33.6171 19.6639 33.8765 18.418 33.8765 17.7202C33.8765 16.9262 33.0183 16.2605 32.4595 16.8192C32.0077 17.2711 32.6814 17.9715 32.3312 18.3218C31.9221 18.7308 30.9783 18.0223 30.9783 16.7765C30.9783 16.0038 31.6013 15.2098 32.6333 15.2098C33.6653 15.2098 35.2533 15.8862 35.2533 17.517C35.2533 19.2789 33.5717 20.4713 32.3178 20.4713C29.8688 20.4713 28.2861 18.5089 28.2861 16.6481C28.2861 13.996 30.6896 12.4908 32.7616 12.4908C34.9352 12.4908 37.3039 14.0708 37.3039 16.7203ZM49.891 25.9788C49.891 22.0888 46.5785 18.5303 42.4986 18.5303C39.5765 18.5303 38.1782 19.9232 38.1782 19.9232C38.1782 19.9232 38.6247 19.0222 38.6247 16.584C38.6247 14.3382 36.6623 11.2021 32.9915 11.2021C31.9783 11.2021 30.7778 11.5203 29.7352 12.1619C30.7645 8.88952 28.8582 5.28024 25.7569 4.15201C22.7171 3.04516 19.0276 3.9916 17.6855 7.68376C16.0974 12.047 19.6425 13.8142 20.8724 14.2633C22.8401 14.9799 25.7008 14.3489 26.6739 11.678C27.5696 9.21837 26.4173 7.2854 24.5913 6.61969C22.4123 5.82565 20.6451 6.96457 20.081 8.51523C19.2976 10.6648 21.2761 12.0095 22.6422 11.3732C24.1421 10.6754 22.8267 9.79853 22.8267 9.79853C22.4391 9.65683 21.129 10.3359 21.5915 9.06598C21.9739 8.01528 22.9898 7.71049 24.0806 8.10618C25.3452 8.56603 25.8959 9.68089 25.3452 11.1941C24.8452 12.5656 23.0165 13.6885 21.0729 12.9827C19.9928 12.5897 17.878 10.8252 18.7603 8.40027C19.8083 5.52354 22.955 4.55304 25.2757 5.39788C28.238 6.47532 29.024 9.50711 28.1551 11.8973C26.9787 15.1296 23.2812 16.6508 20.3885 15.5974C18.8779 15.0467 17.9502 14.2901 17.3246 13.619C17.0626 13.1886 16.7204 12.7688 16.314 12.3945C16.2124 12.2796 16.1215 12.1967 16.0306 12.1486C14.7018 11.0738 12.8197 10.4936 10.9081 11.3839C8.73983 12.3945 7.43247 15.3889 8.73448 18.1801C9.84935 20.5729 12.2636 20.736 13.873 19.9847C15.6964 19.1345 16.322 16.6989 15.5173 14.9718C14.7446 13.3142 12.7394 13.0496 11.793 13.488C10.622 14.0334 9.91619 15.6162 10.6675 17.231C11.1808 18.3298 12.3571 18.3351 13.0015 18.033C13.9773 17.5785 13.873 16.4717 13.5923 15.8675C13.3811 15.413 12.6218 15.3461 12.416 15.9076C12.194 16.5198 12.9186 16.4824 12.5175 16.969C12.5175 16.969 12.0523 17.3593 11.6807 16.7177C11.1941 15.8808 11.5898 14.8622 12.4133 14.4772C13.0629 14.1724 14.2019 14.4933 14.6189 15.3862C15.3141 16.8754 14.4879 18.4207 13.7046 18.8645C13.5175 18.9714 10.9241 20.2441 9.69429 17.6079C8.50189 15.0547 10.1568 12.956 11.4267 12.3651C13.0362 11.6139 15.5386 12.2288 16.5573 14.4077C17.5572 16.5492 16.6214 18.4661 15.6697 19.7227C15.0895 20.2013 14.6163 20.76 14.2928 21.3295C12.8063 23.9576 13.865 26.5082 14.6243 27.3824C14.7045 27.4466 14.774 27.5134 14.8275 27.5856C14.7633 27.5348 14.6938 27.4653 14.6243 27.3824C13.5148 26.5028 10.0258 26.3397 7.58754 27.2755C7.58754 27.2755 5.9032 28.0214 4.59584 30.334C2.76714 33.5663 4.10391 37.7852 7.18383 39.5283C10.1274 41.1939 14.0923 40.8544 16.1161 37.2799C18.5063 33.0557 15.1563 30.6201 13.9666 29.9463C12.0604 28.8689 9.00184 29.024 7.53941 31.6119C6.19195 33.9941 7.04481 36.1837 8.81469 37.1863C10.9241 38.3787 12.9426 37.5125 13.7928 36.0099C14.9692 33.9299 13.1645 32.2001 11.646 32.6199C9.98036 33.0824 11.1834 34.2106 11.1834 34.2106C11.5577 34.4218 13.0282 33.9513 12.3304 35.1811C11.7556 36.1971 10.6541 36.3388 9.59804 35.7399C8.37356 35.0474 7.99926 33.8016 8.82806 32.3392C9.57932 31.0131 11.662 30.1682 13.5415 31.2323C14.5869 31.8232 16.4637 34.0074 15.1349 36.3575C13.5576 39.1433 10.1461 39.5978 7.90034 38.3279C5.03163 36.705 4.74556 33.4433 6.05292 31.128C7.82548 27.9973 11.9 27.0669 14.6992 28.6523C17.7871 30.3982 18.0491 32.6573 18.6426 32.9942C19.2896 33.3604 17.747 30.0105 17.0037 29.1389C16.2151 28.2166 13.4827 25.0858 15.3488 21.784C16.6428 19.5169 19.4126 19.0623 21.0969 20.0168C22.423 20.7681 24.0405 23.1849 22.53 25.8558C20.9713 28.6122 18.263 27.0081 18.0705 26.8771C17.2577 26.3264 16.4958 24.5805 17.3754 23.0245C17.9047 22.0888 19.1666 21.8402 19.8457 22.2251C20.7066 22.7117 21.0515 23.8533 20.4499 24.7196C19.9901 25.3853 19.5196 24.9201 19.5196 24.9201C19.1292 24.356 19.9099 24.4602 19.7227 23.7758C19.549 23.1475 18.7202 23.1555 18.4501 23.6314C18.0919 24.2651 17.886 25.4575 18.9073 26.0349C19.5837 26.4173 20.8617 26.5135 21.5113 25.3639C22.4658 23.6769 21.8348 21.8963 20.6104 21.2039C19.6238 20.6451 17.4235 20.7627 16.4423 22.4952C15.421 24.2998 15.8916 27.0001 17.7978 28.0775C19.1158 28.8234 21.0114 28.9972 22.4524 27.8423C22.4016 28.147 22.3722 28.4652 22.3722 28.7967C22.3722 31.6547 24.9575 34.5849 28.6417 34.5849C31.7991 34.5849 33.1974 32.0504 33.1974 29.9249C33.1974 27.5188 30.8714 25.6072 28.5935 25.6072C26.4039 25.6072 25.1046 27.6471 25.1046 28.8956C25.1046 30.4409 26.4627 32.0076 28.5935 32.0076C30.0453 32.0076 30.6442 30.7324 30.6442 29.8822C30.6442 28.5962 29.3929 28.147 28.5935 28.147C27.992 28.147 27.5375 28.9357 28.0428 29.441C28.5935 29.9918 28.9197 29.187 29.2459 29.8661C29.2459 29.8661 29.4357 30.5666 28.5508 30.6468C27.3985 30.7511 26.4948 29.8073 26.4948 28.7192C26.4948 27.861 27.4145 26.7889 28.5962 26.7889C30.5613 26.7889 31.8205 28.4652 31.9061 29.5373C31.9275 29.7939 31.997 33.2508 28.516 33.2508C25.1447 33.2508 23.7063 30.3955 23.7063 28.7219C23.7063 26.5964 25.6366 24.1929 28.516 24.1929C32.6841 24.1929 34.2 28.5026 34.6545 29.7538C35.0849 30.9355 37.4537 34.2213 37.4537 33.4059C37.4537 32.6546 35.4351 31.1815 35.4351 27.2862C35.4351 23.7517 38.5284 20.359 42.4799 20.359C45.4021 20.359 48.3644 22.3989 48.3644 26.0189C48.3644 28.8529 46.0812 31.8713 42.5655 31.8713C39.6005 31.8713 38.5284 28.8956 38.5284 27.5749C38.5284 25.2008 40.4614 23.6662 42.1377 23.6662C43.9851 23.6662 44.9717 24.6982 44.9717 26.2435C44.9717 27.5749 44.2418 28.5534 42.9585 28.5534C41.4052 28.5534 42.651 27.4038 42.651 26.9306C42.651 26.9306 42.2206 25.1687 40.8785 26.5108C39.654 27.7353 40.3304 30.3982 42.9585 30.3982C44.854 30.3982 46.7763 28.9384 46.7763 26.2756C46.7763 24.0405 45.1428 22.0407 42.1377 22.0407C38.8733 22.0407 37.0687 24.88 37.0687 27.2862C37.0687 28.7887 37.5847 33.3096 42.9157 33.3096C47.418 33.3043 49.891 29.695 49.891 25.9788Z" fill="#3C3C3B"/>
</svg>
